<svg width="260" height="394" viewBox="0 0 260 394" version="1.1" xmlns="http://www.w3.org/2000/svg" xmlns:xlink="http://www.w3.org/1999/xlink">
<title>Group 7.1</title>
<desc>Created using Figma</desc>
<g id="Canvas" transform="translate(-17201 -20794)">
<g id="Group 7.1">
<g id="Vector">
<use xlink:href="#path0_fill" transform="translate(17294.7 21093.4)" fill="#F57C00"/>
</g>
<g id="Vector">
<use xlink:href="#path1_fill" transform="translate(17331.1 21098.4)" fill="#5D4037"/>
</g>
<g id="Vector">
<use xlink:href="#path2_fill" transform="translate(17302 21098.4)" fill="#6D4C41"/>
</g>
<g id="Vector">
<use xlink:href="#path3_fill" transform="translate(17290 21146.1)" fill="#6D4C41"/>
</g>
<g id="Vector">
<use xlink:href="#path4_fill" transform="translate(17297.4 21154.2)" fill="#6D4C41"/>
</g>
<g id="Vector">
<use xlink:href="#path5_fill" transform="translate(17331 21146.1)" fill="#5D4037"/>
</g>
<g id="Vector">
<use xlink:href="#path6_fill" transform="translate(17331 21154.2)" fill="#5D4037"/>
</g>
<g id="Vector">
<use xlink:href="#path7_fill" transform="translate(17297 21106.4)" fill="#6D4C41"/>
</g>
<g id="Vector">
<use xlink:href="#path8_fill" transform="translate(17307.2 21106.4)" fill="#5D4037"/>
</g>
<g id="Vector">
<use xlink:href="#path9_fill" transform="translate(17357 21106.4)" fill="#5D4037"/>
</g>
<g id="Vector">
<use xlink:href="#path10_fill" transform="translate(17346.8 21106.4)" fill="#6D4C41"/>
</g>
<g id="Vector">
<use xlink:href="#path11_fill" transform="translate(17331 20794.5)" fill="#C62828"/>
</g>
<g id="Vector">
<use xlink:href="#path12_fill" transform="translate(17201.4 20794.5)" fill="#E53935"/>
</g>
</g>
</g>
<defs>
<path id="path0_fill" d="M 7.24315 5.0235L 65.6559 5.0235C 66.9055 5.03192 68.1364 4.71948 69.2308 4.11606C 70.3251 3.51264 71.2463 2.63847 71.9061 1.57717C 72.2566 1.05145 72.607 0.525715 72.899 0L 2.85218e-05 0C 2.85218e-05 0.525715 0.642469 1.05145 0.992945 1.57717C 1.65275 2.63847 2.57396 3.51264 3.66829 4.11606C 4.76263 4.71948 5.99351 5.03192 7.24315 5.0235Z"/>
<path id="path1_fill" d="M 29.0313 3.56523e-05L -2.85218e-05 3.56523e-05L -2.85218e-05 8.00255L 29.0313 8.00255L 29.0313 3.56523e-05Z"/>
<path id="path2_fill" d="M 29.1479 3.56523e-05L 2.85218e-05 3.56523e-05L 2.85218e-05 8.00255L 29.1479 8.00255L 29.1479 3.56523e-05Z"/>
<path id="path3_fill" d="M 41.0641 -6.41741e-05L 41.0641 8.06092L 3.79671 8.06092C 2.79443 8.04585 1.83765 7.64097 1.12885 6.93217C 0.42005 6.22337 0.0151743 5.26641 9.98265e-05 4.26413L 9.98265e-05 3.79691C 9.98265e-05 2.78992 0.400052 1.82415 1.1121 1.11211C 1.82414 0.400066 2.78973 -6.41741e-05 3.79671 -6.41741e-05L 41.0641 -6.41741e-05Z"/>
<path id="path4_fill" d="M 33.6457 -3.56523e-05L 33.6457 33.2953L 7.24334 33.2953C 6.29215 33.2953 5.35015 33.1079 4.47137 32.7439C 3.59259 32.3799 2.79412 31.8464 2.12153 31.1738C 1.44893 30.5012 0.915403 29.7027 0.551399 28.824C 0.187395 27.9452 -0.000142609 27.0032 -0.000142609 26.052L -0.000142609 -3.56523e-05L 33.6457 -3.56523e-05Z"/>
<path id="path5_fill" d="M -0.000142609 -6.41741e-05L -0.000142609 8.06092L 37.2672 8.06092C 38.2695 8.04585 39.2266 7.64097 39.9354 6.93217C 40.6442 6.22337 41.0491 5.26641 41.0642 4.26413L 41.0642 3.79691C 41.0642 2.78992 40.6642 1.82415 39.9522 1.11211C 39.2401 0.400066 38.2742 -6.41741e-05 37.2672 -6.41741e-05L -0.000142609 -6.41741e-05Z"/>
<path id="path6_fill" d="M -0.000142609 -3.56523e-05L -0.000142609 33.2953L 26.4025 33.2953C 27.3537 33.2953 28.2957 33.1079 29.1745 32.7439C 30.0533 32.3799 30.8518 31.8464 31.5243 31.1738C 32.1969 30.5012 32.7305 29.7027 33.0945 28.824C 33.4585 27.9452 33.6457 27.0032 33.6457 26.052L 33.6457 -3.56523e-05L -0.000142609 -3.56523e-05Z"/>
<path id="path7_fill" d="M 2.62846 39.7206L 0.000171131 39.7206L 5.84145 7.13046e-06L 8.46973 7.13046e-06L 2.62846 39.7206Z"/>
<path id="path8_fill" d="M 2.56999 39.7206L 0.000171131 39.7206L 5.78298 7.13046e-06L 8.41126 7.13046e-06L 2.56999 39.7206Z"/>
<path id="path9_fill" d="M 5.84127 39.7206L 8.41145 39.7206L 2.62864 0L 0 0L 5.84127 39.7206Z"/>
<path id="path10_fill" d="M 5.78279 39.7206L 8.41144 39.7206L 2.57016 7.13046e-06L -1.42609e-05 7.13046e-06L 5.78279 39.7206Z"/>
<path id="path11_fill" d="M 11.3321 0C 7.59367 0 3.79683 0 0 0L 0 303.921L 29.2064 303.921C 30.4558 303.958 31.6936 303.67 32.7991 303.087C 33.9045 302.504 34.8402 301.644 35.515 300.592C 73.7754 239.083 129.384 141.359 129.384 94.4534C 129.384 26.8114 77.7474 2.33651 11.3321 0Z"/>
<path id="path12_fill" d="M 118.344 4.27828e-05C 122.141 4.27828e-05 125.879 4.27828e-05 129.676 4.27828e-05L 129.676 303.921L 100.47 303.921C 99.2272 303.965 97.9952 303.68 96.8978 303.096C 95.8004 302.511 94.8765 301.648 94.2196 300.592C 55.784 239.025 -0.00015687 141.359 -0.00015687 94.4534C 0.116669 26.8115 51.9288 2.33655 118.344 4.27828e-05Z"/>
</defs>
</svg>
